<?xml version="1.0" encoding="UTF-8"?>
<svg width="120" height="90" viewBox="0 0 120 90" xmlns="http://www.w3.org/2000/svg">
  <g fill="#FFFFFF">
    <path d="M7.8,68.5c-2.6,0.9-4.5,1.5-5.8,1.9c-1.3,0.4-2,0.6-2,0.6l0,8.3c0,0,1.6-0.5,4.3-1.5c2.7-1,5.7-2.1,8.9-3.4
      c3.2-1.3,6.4-2.7,9.5-4.1c3.1-1.4,5.8-2.8,8.1-4c2.3-1.2,4-2.3,5.2-3.1c1.2-0.8,1.8-1.3,1.8-1.3c0-0.5-0.2-0.9-0.6-1.3
      c-0.4-0.4-1-0.7-1.7-1c-0.7-0.3-1.6-0.5-2.6-0.6c-1-0.1-2.1-0.2-3.2-0.2c-1.2,0-2.3,0.1-3.5,0.3c-1.2,0.2-2.3,0.4-3.4,0.7
      c-1.1,0.3-2.1,0.6-3,0.9c-0.9,0.3-1.6,0.6-2.1,0.9c0,0-3.1,1.3-6.9,3.1c-3.8,1.8-7.9,3.9-7.9,3.9V56.8c0,0,0.9-0.4,2.4-1.1
      c1.5-0.7,3.6-1.5,6.1-2.5c2.5-0.9,5.4-1.9,8.4-2.8c3-0.9,6.1-1.7,9.1-2.3c3-0.6,5.9-1,8.5-1.2c2.6-0.2,4.8-0.2,6.5,0.1
      c1.7,0.3,2.8,0.7,3.3,1.3c0.5,0.6,0.3,1.3-0.5,2.2c-0.8,0.9-2.3,1.9-4.3,3c-2,1.1-4.5,2.3-7.4,3.5c-2.9,1.2-6.1,2.4-9.4,3.6
      c-3.3,1.2-6.7,2.3-10,3.4c-3.3,1.1-6.5,2.1-9.4,3c-2.9,0.9-5.5,1.7-7.6,2.3c-2.1,0.6-3.7,1.1-4.7,1.4c-1,0.3-1.5,0.5-1.5,0.5
      l0,8.3c0,0,1.2-0.4,3.2-1.1c2-0.7,4.8-1.7,7.8-2.7"></path>
    <path d="M112.2,45.8c0-0.6-0.1-1.2-0.4-1.8c-0.3-0.6-0.7-1.1-1.3-1.5c-0.6-0.4-1.3-0.8-2.2-1.1c-0.9-0.3-1.9-0.4-3-0.5
      c-1.1-0.1-2.3,0-3.6,0.2c-1.3,0.2-2.6,0.5-4,0.9c-1.4,0.4-2.8,0.9-4.2,1.5c-1.4,0.6-2.8,1.2-4.1,1.9c-1.3,0.7-2.5,1.4-3.7,2.1
      c-1.2,0.7-2.2,1.4-3.1,2.1c-0.9,0.7-1.6,1.3-2.1,1.9c-0.5,0.6-0.8,1.1-0.8,1.5c0,0.4,0.3,0.8,0.8,1.1c0.5,0.3,1.2,0.5,2.1,0.7
      c0.9,0.2,1.9,0.3,3,0.3c1.1,0,2.3-0.1,3.5-0.2c1.2-0.1,2.4-0.3,3.6-0.5c1.2-0.2,2.4-0.5,3.5-0.7c1.1-0.3,2.1-0.5,3-0.8
      c0.9-0.3,1.6-0.5,2.1-0.7c0.5-0.2,0.8-0.3,0.8-0.3l0-8.3c0,0-0.9,0.3-2.4,0.8c-1.5,0.5-3.6,1.1-6.1,1.7c-2.5,0.6-5.3,1.2-8.2,1.6
      c-2.9,0.4-5.9,0.7-8.6,0.7c-2.7,0-5.1-0.2-6.8-0.7c-1.7-0.5-2.8-1.2-3.1-2.1c-0.3-0.9,0.2-2,1.5-3.1c1.3-1.1,3.3-2.3,5.8-3.4
      c2.5-1.1,5.5-2.1,8.8-3c3.3-0.9,6.9-1.6,10.5-2c3.6-0.4,7.2-0.6,10.5-0.4c3.3,0.2,6.3,0.7,8.8,1.5c2.5,0.8,4.5,1.9,5.8,3.2
      c1.3,1.3,1.8,2.8,1.5,4.4"></path>
    <path d="M118.8,76.3c0.7-0.4,1.3-0.9,1.7-1.5c0.4-0.6,0.6-1.3,0.6-2c0-0.7-0.2-1.5-0.6-2.2c-0.4-0.7-1-1.4-1.7-2
      c-0.7-0.6-1.6-1.2-2.6-1.7c-1-0.5-2.1-0.9-3.3-1.3c-1.2-0.4-2.4-0.7-3.7-0.9c-1.3-0.2-2.5-0.4-3.8-0.5c-1.3-0.1-2.5-0.1-3.7,0
      c-1.2,0.1-2.3,0.2-3.3,0.4c-1,0.2-1.9,0.4-2.6,0.7c-0.7,0.3-1.3,0.6-1.7,1c-0.4,0.4-0.6,0.8-0.6,1.3c0,0.5,0.2,1,0.6,1.5
      c0.4,0.5,1,1,1.7,1.5c0.7,0.5,1.6,0.9,2.6,1.3c1,0.4,2.1,0.7,3.3,0.9c1.2,0.2,2.4,0.4,3.7,0.5c1.3,0.1,2.5,0.1,3.8,0
      c1.3-0.1,2.5-0.2,3.7-0.4c1.2-0.2,2.3-0.4,3.3-0.7c1-0.3,1.9-0.6,2.6-0.9"></path>
  </g>
</svg>
